<mxfile host="app.diagrams.net" agent="Mozilla/5.0 (Windows NT 10.0; Win64; x64) AppleWebKit/537.36 (KHTML, like Gecko) Chrome/134.0.0.0 Safari/537.36 Edg/134.0.0.0" version="26.1.1">
  <diagram name="Page-1" id="c4acf3e9-155e-7222-9cf6-157b1a14988f">
    <mxGraphModel dx="3090" dy="1030" grid="1" gridSize="10" guides="1" tooltips="1" connect="1" arrows="1" fold="1" page="1" pageScale="1" pageWidth="850" pageHeight="1100" background="none" math="0" shadow="0">
      <root>
        <mxCell id="0" />
        <mxCell id="1" parent="0" />
        <mxCell id="FAsmfHj1ec_tE7GGiXv_-1" value="" style="swimlane;startSize=0;" vertex="1" parent="1">
          <mxGeometry x="-110" y="20" width="830" height="1070" as="geometry" />
        </mxCell>
        <mxCell id="FAsmfHj1ec_tE7GGiXv_-2" value="&lt;font style=&quot;font-size: 14px;&quot;&gt;Grade Points System&lt;/font&gt;" style="text;html=1;align=center;verticalAlign=middle;whiteSpace=wrap;rounded=0;" vertex="1" parent="FAsmfHj1ec_tE7GGiXv_-1">
          <mxGeometry x="373" width="140" height="30" as="geometry" />
        </mxCell>
        <mxCell id="FAsmfHj1ec_tE7GGiXv_-19" value="Login" style="ellipse;whiteSpace=wrap;html=1;" vertex="1" parent="FAsmfHj1ec_tE7GGiXv_-1">
          <mxGeometry x="210" y="72" width="100" height="60" as="geometry" />
        </mxCell>
        <mxCell id="FAsmfHj1ec_tE7GGiXv_-18" value="Register" style="ellipse;whiteSpace=wrap;html=1;" vertex="1" parent="FAsmfHj1ec_tE7GGiXv_-1">
          <mxGeometry x="210" y="9" width="100" height="60" as="geometry" />
        </mxCell>
        <mxCell id="FAsmfHj1ec_tE7GGiXv_-26" value="View Dashboard" style="ellipse;whiteSpace=wrap;html=1;" vertex="1" parent="FAsmfHj1ec_tE7GGiXv_-1">
          <mxGeometry x="210" y="134" width="100" height="60" as="geometry" />
        </mxCell>
        <mxCell id="FAsmfHj1ec_tE7GGiXv_-25" value="Submit Dispute" style="ellipse;whiteSpace=wrap;html=1;" vertex="1" parent="FAsmfHj1ec_tE7GGiXv_-1">
          <mxGeometry x="210" y="260" width="100" height="60" as="geometry" />
        </mxCell>
        <mxCell id="FAsmfHj1ec_tE7GGiXv_-24" value="Redeem Points" style="ellipse;whiteSpace=wrap;html=1;" vertex="1" parent="FAsmfHj1ec_tE7GGiXv_-1">
          <mxGeometry x="210" y="197" width="100" height="60" as="geometry" />
        </mxCell>
        <mxCell id="FAsmfHj1ec_tE7GGiXv_-29" value="" style="endArrow=none;html=1;rounded=0;exitX=0.5;exitY=0.5;exitDx=0;exitDy=0;exitPerimeter=0;" edge="1" parent="FAsmfHj1ec_tE7GGiXv_-1" source="FAsmfHj1ec_tE7GGiXv_-3">
          <mxGeometry width="50" height="50" relative="1" as="geometry">
            <mxPoint x="160" y="90" as="sourcePoint" />
            <mxPoint x="210" y="40" as="targetPoint" />
          </mxGeometry>
        </mxCell>
        <mxCell id="FAsmfHj1ec_tE7GGiXv_-30" value="" style="endArrow=none;html=1;rounded=0;exitX=0.5;exitY=0.5;exitDx=0;exitDy=0;exitPerimeter=0;" edge="1" parent="FAsmfHj1ec_tE7GGiXv_-1" source="FAsmfHj1ec_tE7GGiXv_-3">
          <mxGeometry width="50" height="50" relative="1" as="geometry">
            <mxPoint x="160" y="150" as="sourcePoint" />
            <mxPoint x="210" y="100" as="targetPoint" />
          </mxGeometry>
        </mxCell>
        <mxCell id="FAsmfHj1ec_tE7GGiXv_-31" value="" style="endArrow=none;html=1;rounded=0;exitX=0.5;exitY=0.5;exitDx=0;exitDy=0;exitPerimeter=0;" edge="1" parent="FAsmfHj1ec_tE7GGiXv_-1" source="FAsmfHj1ec_tE7GGiXv_-3">
          <mxGeometry width="50" height="50" relative="1" as="geometry">
            <mxPoint x="-70" y="170" as="sourcePoint" />
            <mxPoint x="210" y="160" as="targetPoint" />
          </mxGeometry>
        </mxCell>
        <mxCell id="FAsmfHj1ec_tE7GGiXv_-32" value="" style="endArrow=none;html=1;rounded=0;exitX=0.5;exitY=0.5;exitDx=0;exitDy=0;exitPerimeter=0;" edge="1" parent="FAsmfHj1ec_tE7GGiXv_-1" source="FAsmfHj1ec_tE7GGiXv_-3">
          <mxGeometry width="50" height="50" relative="1" as="geometry">
            <mxPoint x="160" y="270" as="sourcePoint" />
            <mxPoint x="210" y="220" as="targetPoint" />
          </mxGeometry>
        </mxCell>
        <mxCell id="FAsmfHj1ec_tE7GGiXv_-33" value="" style="endArrow=none;html=1;rounded=0;exitX=0.5;exitY=0.5;exitDx=0;exitDy=0;exitPerimeter=0;" edge="1" parent="FAsmfHj1ec_tE7GGiXv_-1" source="FAsmfHj1ec_tE7GGiXv_-3">
          <mxGeometry width="50" height="50" relative="1" as="geometry">
            <mxPoint x="160" y="330" as="sourcePoint" />
            <mxPoint x="210" y="280" as="targetPoint" />
          </mxGeometry>
        </mxCell>
        <mxCell id="FAsmfHj1ec_tE7GGiXv_-34" value="Process Payment" style="ellipse;whiteSpace=wrap;html=1;" vertex="1" parent="FAsmfHj1ec_tE7GGiXv_-1">
          <mxGeometry x="460" y="137" width="100" height="60" as="geometry" />
        </mxCell>
        <mxCell id="FAsmfHj1ec_tE7GGiXv_-36" value="Upload Grades" style="ellipse;whiteSpace=wrap;html=1;" vertex="1" parent="FAsmfHj1ec_tE7GGiXv_-1">
          <mxGeometry x="210" y="454" width="100" height="60" as="geometry" />
        </mxCell>
        <mxCell id="FAsmfHj1ec_tE7GGiXv_-37" value="View Educator Dashboard" style="ellipse;whiteSpace=wrap;html=1;" vertex="1" parent="FAsmfHj1ec_tE7GGiXv_-1">
          <mxGeometry x="210" y="391" width="100" height="60" as="geometry" />
        </mxCell>
        <mxCell id="FAsmfHj1ec_tE7GGiXv_-38" value="Sync Grades" style="ellipse;whiteSpace=wrap;html=1;" vertex="1" parent="FAsmfHj1ec_tE7GGiXv_-1">
          <mxGeometry x="210" y="517" width="100" height="60" as="geometry" />
        </mxCell>
        <mxCell id="FAsmfHj1ec_tE7GGiXv_-39" value="Review Dispute" style="ellipse;whiteSpace=wrap;html=1;" vertex="1" parent="FAsmfHj1ec_tE7GGiXv_-1">
          <mxGeometry x="210" y="643" width="100" height="60" as="geometry" />
        </mxCell>
        <mxCell id="FAsmfHj1ec_tE7GGiXv_-40" value="Manage Points" style="ellipse;whiteSpace=wrap;html=1;" vertex="1" parent="FAsmfHj1ec_tE7GGiXv_-1">
          <mxGeometry x="210" y="580" width="100" height="60" as="geometry" />
        </mxCell>
        <mxCell id="FAsmfHj1ec_tE7GGiXv_-42" value="Provide Grade Data" style="ellipse;whiteSpace=wrap;html=1;" vertex="1" parent="FAsmfHj1ec_tE7GGiXv_-1">
          <mxGeometry x="640" y="260" width="100" height="60" as="geometry" />
        </mxCell>
        <mxCell id="FAsmfHj1ec_tE7GGiXv_-44" value="Login" style="ellipse;whiteSpace=wrap;html=1;" vertex="1" parent="FAsmfHj1ec_tE7GGiXv_-1">
          <mxGeometry x="210" y="328" width="100" height="60" as="geometry" />
        </mxCell>
        <mxCell id="FAsmfHj1ec_tE7GGiXv_-45" value="" style="endArrow=none;html=1;rounded=0;exitX=0.5;exitY=0.5;exitDx=0;exitDy=0;exitPerimeter=0;" edge="1" parent="FAsmfHj1ec_tE7GGiXv_-1" source="FAsmfHj1ec_tE7GGiXv_-4">
          <mxGeometry width="50" height="50" relative="1" as="geometry">
            <mxPoint x="160" y="410" as="sourcePoint" />
            <mxPoint x="210" y="360" as="targetPoint" />
          </mxGeometry>
        </mxCell>
        <mxCell id="FAsmfHj1ec_tE7GGiXv_-46" value="" style="endArrow=none;html=1;rounded=0;exitX=0.5;exitY=0.5;exitDx=0;exitDy=0;exitPerimeter=0;" edge="1" parent="FAsmfHj1ec_tE7GGiXv_-1" source="FAsmfHj1ec_tE7GGiXv_-4">
          <mxGeometry width="50" height="50" relative="1" as="geometry">
            <mxPoint x="160" y="470" as="sourcePoint" />
            <mxPoint x="210" y="420" as="targetPoint" />
          </mxGeometry>
        </mxCell>
        <mxCell id="FAsmfHj1ec_tE7GGiXv_-47" value="" style="endArrow=none;html=1;rounded=0;exitX=0.5;exitY=0.5;exitDx=0;exitDy=0;exitPerimeter=0;" edge="1" parent="FAsmfHj1ec_tE7GGiXv_-1" source="FAsmfHj1ec_tE7GGiXv_-4">
          <mxGeometry width="50" height="50" relative="1" as="geometry">
            <mxPoint x="160" y="530" as="sourcePoint" />
            <mxPoint x="210" y="480" as="targetPoint" />
          </mxGeometry>
        </mxCell>
        <mxCell id="FAsmfHj1ec_tE7GGiXv_-48" value="" style="endArrow=none;html=1;rounded=0;exitX=0.5;exitY=0.5;exitDx=0;exitDy=0;exitPerimeter=0;" edge="1" parent="FAsmfHj1ec_tE7GGiXv_-1" source="FAsmfHj1ec_tE7GGiXv_-4">
          <mxGeometry width="50" height="50" relative="1" as="geometry">
            <mxPoint x="160" y="590" as="sourcePoint" />
            <mxPoint x="210" y="540" as="targetPoint" />
          </mxGeometry>
        </mxCell>
        <mxCell id="FAsmfHj1ec_tE7GGiXv_-49" value="" style="endArrow=none;html=1;rounded=0;exitX=0.5;exitY=0.5;exitDx=0;exitDy=0;exitPerimeter=0;" edge="1" parent="FAsmfHj1ec_tE7GGiXv_-1" source="FAsmfHj1ec_tE7GGiXv_-4">
          <mxGeometry width="50" height="50" relative="1" as="geometry">
            <mxPoint x="160" y="660" as="sourcePoint" />
            <mxPoint x="210" y="610" as="targetPoint" />
          </mxGeometry>
        </mxCell>
        <mxCell id="FAsmfHj1ec_tE7GGiXv_-50" value="" style="endArrow=none;html=1;rounded=0;exitX=0.5;exitY=0.5;exitDx=0;exitDy=0;exitPerimeter=0;" edge="1" parent="FAsmfHj1ec_tE7GGiXv_-1" source="FAsmfHj1ec_tE7GGiXv_-4">
          <mxGeometry width="50" height="50" relative="1" as="geometry">
            <mxPoint x="160" y="720" as="sourcePoint" />
            <mxPoint x="210" y="670" as="targetPoint" />
          </mxGeometry>
        </mxCell>
        <mxCell id="FAsmfHj1ec_tE7GGiXv_-51" value="Manage Users" style="ellipse;whiteSpace=wrap;html=1;" vertex="1" parent="FAsmfHj1ec_tE7GGiXv_-1">
          <mxGeometry x="210" y="730" width="100" height="60" as="geometry" />
        </mxCell>
        <mxCell id="FAsmfHj1ec_tE7GGiXv_-52" value="Configure RBAC" style="ellipse;whiteSpace=wrap;html=1;" vertex="1" parent="FAsmfHj1ec_tE7GGiXv_-1">
          <mxGeometry x="210" y="793" width="100" height="60" as="geometry" />
        </mxCell>
        <mxCell id="FAsmfHj1ec_tE7GGiXv_-53" value="Audit Logs" style="ellipse;whiteSpace=wrap;html=1;" vertex="1" parent="FAsmfHj1ec_tE7GGiXv_-1">
          <mxGeometry x="210" y="919" width="100" height="60" as="geometry" />
        </mxCell>
        <mxCell id="FAsmfHj1ec_tE7GGiXv_-54" value="Set Redemption Rates" style="ellipse;whiteSpace=wrap;html=1;" vertex="1" parent="FAsmfHj1ec_tE7GGiXv_-1">
          <mxGeometry x="210" y="856" width="100" height="60" as="geometry" />
        </mxCell>
        <mxCell id="FAsmfHj1ec_tE7GGiXv_-55" value="" style="endArrow=none;html=1;rounded=0;exitX=0.5;exitY=0.5;exitDx=0;exitDy=0;exitPerimeter=0;" edge="1" parent="FAsmfHj1ec_tE7GGiXv_-1" source="FAsmfHj1ec_tE7GGiXv_-11">
          <mxGeometry width="50" height="50" relative="1" as="geometry">
            <mxPoint x="160" y="810" as="sourcePoint" />
            <mxPoint x="210" y="760" as="targetPoint" />
          </mxGeometry>
        </mxCell>
        <mxCell id="FAsmfHj1ec_tE7GGiXv_-56" value="" style="endArrow=none;html=1;rounded=0;exitX=0.5;exitY=0.5;exitDx=0;exitDy=0;exitPerimeter=0;" edge="1" parent="FAsmfHj1ec_tE7GGiXv_-1" source="FAsmfHj1ec_tE7GGiXv_-11">
          <mxGeometry width="50" height="50" relative="1" as="geometry">
            <mxPoint x="160" y="880" as="sourcePoint" />
            <mxPoint x="210" y="830" as="targetPoint" />
          </mxGeometry>
        </mxCell>
        <mxCell id="FAsmfHj1ec_tE7GGiXv_-57" value="" style="endArrow=none;html=1;rounded=0;exitX=0.5;exitY=0.5;exitDx=0;exitDy=0;exitPerimeter=0;" edge="1" parent="FAsmfHj1ec_tE7GGiXv_-1" source="FAsmfHj1ec_tE7GGiXv_-11">
          <mxGeometry width="50" height="50" relative="1" as="geometry">
            <mxPoint x="160" y="940" as="sourcePoint" />
            <mxPoint x="210" y="890" as="targetPoint" />
          </mxGeometry>
        </mxCell>
        <mxCell id="FAsmfHj1ec_tE7GGiXv_-58" value="" style="endArrow=none;html=1;rounded=0;exitX=0.5;exitY=0.5;exitDx=0;exitDy=0;exitPerimeter=0;" edge="1" parent="FAsmfHj1ec_tE7GGiXv_-1" source="FAsmfHj1ec_tE7GGiXv_-11">
          <mxGeometry width="50" height="50" relative="1" as="geometry">
            <mxPoint x="160" y="1000" as="sourcePoint" />
            <mxPoint x="210" y="950" as="targetPoint" />
          </mxGeometry>
        </mxCell>
        <mxCell id="FAsmfHj1ec_tE7GGiXv_-60" value="Validate Compliance" style="ellipse;whiteSpace=wrap;html=1;" vertex="1" parent="FAsmfHj1ec_tE7GGiXv_-1">
          <mxGeometry x="640" y="385" width="100" height="60" as="geometry" />
        </mxCell>
        <mxCell id="FAsmfHj1ec_tE7GGiXv_-59" value="Authorise Integration" style="ellipse;whiteSpace=wrap;html=1;" vertex="1" parent="FAsmfHj1ec_tE7GGiXv_-1">
          <mxGeometry x="640" y="323" width="100" height="60" as="geometry" />
        </mxCell>
        <mxCell id="FAsmfHj1ec_tE7GGiXv_-63" value="Enforce Policy Changes" style="ellipse;whiteSpace=wrap;html=1;" vertex="1" parent="FAsmfHj1ec_tE7GGiXv_-1">
          <mxGeometry x="640" y="652" width="100" height="60" as="geometry" />
        </mxCell>
        <mxCell id="FAsmfHj1ec_tE7GGiXv_-64" value="Review Compliance Reports" style="ellipse;whiteSpace=wrap;html=1;" vertex="1" parent="FAsmfHj1ec_tE7GGiXv_-1">
          <mxGeometry x="640" y="589" width="100" height="60" as="geometry" />
        </mxCell>
        <mxCell id="FAsmfHj1ec_tE7GGiXv_-67" value="&amp;lt;&amp;lt;include&amp;gt;&amp;gt;" style="html=1;verticalAlign=bottom;labelBackgroundColor=none;endArrow=open;endFill=0;dashed=1;rounded=0;entryX=0;entryY=0.5;entryDx=0;entryDy=0;" edge="1" parent="FAsmfHj1ec_tE7GGiXv_-1" target="FAsmfHj1ec_tE7GGiXv_-64">
          <mxGeometry width="160" relative="1" as="geometry">
            <mxPoint x="310" y="950" as="sourcePoint" />
            <mxPoint x="470" y="950" as="targetPoint" />
          </mxGeometry>
        </mxCell>
        <mxCell id="FAsmfHj1ec_tE7GGiXv_-68" value="&amp;lt;&amp;lt;include&amp;gt;&amp;gt;" style="html=1;verticalAlign=bottom;labelBackgroundColor=none;endArrow=open;endFill=0;dashed=1;rounded=0;entryX=0.5;entryY=0;entryDx=0;entryDy=0;" edge="1" parent="FAsmfHj1ec_tE7GGiXv_-1" target="FAsmfHj1ec_tE7GGiXv_-64">
          <mxGeometry width="160" relative="1" as="geometry">
            <mxPoint x="690" y="446" as="sourcePoint" />
            <mxPoint x="690" y="586" as="targetPoint" />
          </mxGeometry>
        </mxCell>
        <mxCell id="FAsmfHj1ec_tE7GGiXv_-73" value="Perform System Maintenance" style="ellipse;whiteSpace=wrap;html=1;" vertex="1" parent="FAsmfHj1ec_tE7GGiXv_-1">
          <mxGeometry x="640" y="740" width="100" height="60" as="geometry" />
        </mxCell>
        <mxCell id="FAsmfHj1ec_tE7GGiXv_-74" value="Troubleshoot System Errors" style="ellipse;whiteSpace=wrap;html=1;" vertex="1" parent="FAsmfHj1ec_tE7GGiXv_-1">
          <mxGeometry x="640" y="803" width="100" height="60" as="geometry" />
        </mxCell>
        <mxCell id="FAsmfHj1ec_tE7GGiXv_-75" value="Implement Security Updates" style="ellipse;whiteSpace=wrap;html=1;" vertex="1" parent="FAsmfHj1ec_tE7GGiXv_-1">
          <mxGeometry x="640" y="929" width="100" height="60" as="geometry" />
        </mxCell>
        <mxCell id="FAsmfHj1ec_tE7GGiXv_-76" value="Monitor System Health" style="ellipse;whiteSpace=wrap;html=1;" vertex="1" parent="FAsmfHj1ec_tE7GGiXv_-1">
          <mxGeometry x="640" y="866" width="100" height="60" as="geometry" />
        </mxCell>
        <mxCell id="FAsmfHj1ec_tE7GGiXv_-81" value="&amp;lt;&amp;lt;extend&amp;gt;&amp;gt;" style="edgeStyle=none;html=1;startArrow=open;endArrow=none;startSize=12;verticalAlign=bottom;dashed=1;labelBackgroundColor=none;rounded=0;exitX=0;exitY=0.5;exitDx=0;exitDy=0;" edge="1" parent="FAsmfHj1ec_tE7GGiXv_-1" source="FAsmfHj1ec_tE7GGiXv_-74">
          <mxGeometry width="160" relative="1" as="geometry">
            <mxPoint x="350" y="200" as="sourcePoint" />
            <mxPoint x="510" y="200" as="targetPoint" />
          </mxGeometry>
        </mxCell>
        <mxCell id="FAsmfHj1ec_tE7GGiXv_-82" value="&amp;lt;&amp;lt;extend&amp;gt;&amp;gt;" style="html=1;verticalAlign=bottom;labelBackgroundColor=none;endArrow=open;endFill=0;dashed=1;rounded=0;entryX=0;entryY=0.5;entryDx=0;entryDy=0;" edge="1" parent="FAsmfHj1ec_tE7GGiXv_-1" target="FAsmfHj1ec_tE7GGiXv_-74">
          <mxGeometry x="-0.2465" y="9" width="160" relative="1" as="geometry">
            <mxPoint x="310" y="550" as="sourcePoint" />
            <mxPoint x="470" y="550" as="targetPoint" />
            <mxPoint as="offset" />
          </mxGeometry>
        </mxCell>
        <mxCell id="FAsmfHj1ec_tE7GGiXv_-85" value="&amp;lt;&amp;lt;include&amp;gt;&amp;gt;" style="html=1;verticalAlign=bottom;labelBackgroundColor=none;endArrow=open;endFill=0;dashed=1;rounded=0;entryX=0;entryY=0.5;entryDx=0;entryDy=0;exitX=1;exitY=0.5;exitDx=0;exitDy=0;" edge="1" parent="FAsmfHj1ec_tE7GGiXv_-1" source="FAsmfHj1ec_tE7GGiXv_-38" target="FAsmfHj1ec_tE7GGiXv_-42">
          <mxGeometry width="160" relative="1" as="geometry">
            <mxPoint x="300" y="550" as="sourcePoint" />
            <mxPoint x="460" y="550" as="targetPoint" />
          </mxGeometry>
        </mxCell>
        <mxCell id="FAsmfHj1ec_tE7GGiXv_-86" value="Handle System Configuration" style="ellipse;whiteSpace=wrap;html=1;" vertex="1" parent="FAsmfHj1ec_tE7GGiXv_-1">
          <mxGeometry x="210" y="981" width="100" height="60" as="geometry" />
        </mxCell>
        <mxCell id="FAsmfHj1ec_tE7GGiXv_-88" value="&amp;lt;&amp;lt;include&amp;gt;&amp;gt;" style="html=1;verticalAlign=bottom;labelBackgroundColor=none;endArrow=open;endFill=0;dashed=1;rounded=0;entryX=1;entryY=0.5;entryDx=0;entryDy=0;exitX=0;exitY=0.5;exitDx=0;exitDy=0;" edge="1" parent="FAsmfHj1ec_tE7GGiXv_-1" source="FAsmfHj1ec_tE7GGiXv_-59" target="FAsmfHj1ec_tE7GGiXv_-86">
          <mxGeometry x="-0.1525" width="160" relative="1" as="geometry">
            <mxPoint x="640" y="350" as="sourcePoint" />
            <mxPoint x="800" y="350" as="targetPoint" />
            <mxPoint as="offset" />
          </mxGeometry>
        </mxCell>
        <mxCell id="FAsmfHj1ec_tE7GGiXv_-89" value="&amp;lt;&amp;lt;include&amp;gt;&amp;gt;" style="html=1;verticalAlign=bottom;labelBackgroundColor=none;endArrow=open;endFill=0;dashed=1;rounded=0;entryX=0;entryY=0.5;entryDx=0;entryDy=0;exitX=1;exitY=0.5;exitDx=0;exitDy=0;" edge="1" parent="FAsmfHj1ec_tE7GGiXv_-1" source="FAsmfHj1ec_tE7GGiXv_-24" target="FAsmfHj1ec_tE7GGiXv_-34">
          <mxGeometry width="160" relative="1" as="geometry">
            <mxPoint x="420" y="207" as="sourcePoint" />
            <mxPoint x="470" y="227" as="targetPoint" />
          </mxGeometry>
        </mxCell>
        <mxCell id="FAsmfHj1ec_tE7GGiXv_-90" value="&amp;lt;&amp;lt;extend&amp;gt;&amp;gt;" style="html=1;verticalAlign=bottom;labelBackgroundColor=none;endArrow=open;endFill=0;dashed=1;rounded=0;entryX=1;entryY=0.5;entryDx=0;entryDy=0;exitX=1;exitY=0.5;exitDx=0;exitDy=0;" edge="1" parent="FAsmfHj1ec_tE7GGiXv_-1" source="FAsmfHj1ec_tE7GGiXv_-25" target="FAsmfHj1ec_tE7GGiXv_-39">
          <mxGeometry x="-0.3063" width="160" relative="1" as="geometry">
            <mxPoint x="310" y="290" as="sourcePoint" />
            <mxPoint x="470" y="290" as="targetPoint" />
            <Array as="points">
              <mxPoint x="420" y="370" />
              <mxPoint x="420" y="540" />
            </Array>
            <mxPoint as="offset" />
          </mxGeometry>
        </mxCell>
        <mxCell id="FAsmfHj1ec_tE7GGiXv_-3" value="Student" style="shape=umlActor;verticalLabelPosition=bottom;verticalAlign=top;html=1;outlineConnect=0;" vertex="1" parent="1">
          <mxGeometry x="-240" y="180" width="50" height="70" as="geometry" />
        </mxCell>
        <mxCell id="FAsmfHj1ec_tE7GGiXv_-4" value="Educator" style="shape=umlActor;verticalLabelPosition=bottom;verticalAlign=top;html=1;outlineConnect=0;" vertex="1" parent="1">
          <mxGeometry x="-240" y="460" width="50" height="70" as="geometry" />
        </mxCell>
        <mxCell id="FAsmfHj1ec_tE7GGiXv_-8" value="Educational&amp;nbsp;&lt;div&gt;Institution&lt;/div&gt;" style="shape=umlActor;verticalLabelPosition=bottom;verticalAlign=top;html=1;outlineConnect=0;" vertex="1" parent="1">
          <mxGeometry x="760" y="280" width="50" height="70" as="geometry" />
        </mxCell>
        <mxCell id="FAsmfHj1ec_tE7GGiXv_-11" value="Administrator" style="shape=umlActor;verticalLabelPosition=bottom;verticalAlign=top;html=1;outlineConnect=0;" vertex="1" parent="1">
          <mxGeometry x="-240" y="770" width="50" height="70" as="geometry" />
        </mxCell>
        <mxCell id="FAsmfHj1ec_tE7GGiXv_-12" value="Technical Support &amp;amp;&lt;div&gt;Developers&lt;/div&gt;" style="shape=umlActor;verticalLabelPosition=bottom;verticalAlign=top;html=1;outlineConnect=0;" vertex="1" parent="1">
          <mxGeometry x="760" y="850" width="50" height="70" as="geometry" />
        </mxCell>
        <mxCell id="FAsmfHj1ec_tE7GGiXv_-13" value="Government &amp;amp;&lt;div&gt;Educational Regulators&lt;/div&gt;" style="shape=umlActor;verticalLabelPosition=bottom;verticalAlign=top;html=1;outlineConnect=0;" vertex="1" parent="1">
          <mxGeometry x="760" y="630" width="50" height="70" as="geometry" />
        </mxCell>
        <mxCell id="FAsmfHj1ec_tE7GGiXv_-14" value="Payment Provider" style="shape=umlActor;verticalLabelPosition=bottom;verticalAlign=top;html=1;outlineConnect=0;" vertex="1" parent="1">
          <mxGeometry x="760" y="100" width="50" height="70" as="geometry" />
        </mxCell>
        <mxCell id="FAsmfHj1ec_tE7GGiXv_-35" value="" style="endArrow=none;html=1;rounded=0;entryX=0.5;entryY=0.5;entryDx=0;entryDy=0;entryPerimeter=0;exitX=1;exitY=0.5;exitDx=0;exitDy=0;" edge="1" parent="1" source="FAsmfHj1ec_tE7GGiXv_-34" target="FAsmfHj1ec_tE7GGiXv_-14">
          <mxGeometry width="50" height="50" relative="1" as="geometry">
            <mxPoint x="630" y="290" as="sourcePoint" />
            <mxPoint x="680" y="240" as="targetPoint" />
          </mxGeometry>
        </mxCell>
        <mxCell id="FAsmfHj1ec_tE7GGiXv_-65" value="" style="endArrow=none;html=1;rounded=0;entryX=0.5;entryY=0.5;entryDx=0;entryDy=0;entryPerimeter=0;exitX=1;exitY=0.5;exitDx=0;exitDy=0;" edge="1" parent="1" source="FAsmfHj1ec_tE7GGiXv_-64" target="FAsmfHj1ec_tE7GGiXv_-13">
          <mxGeometry width="50" height="50" relative="1" as="geometry">
            <mxPoint x="630" y="660" as="sourcePoint" />
            <mxPoint x="680" y="610" as="targetPoint" />
          </mxGeometry>
        </mxCell>
        <mxCell id="FAsmfHj1ec_tE7GGiXv_-80" value="" style="endArrow=none;html=1;rounded=0;entryX=0.5;entryY=0.5;entryDx=0;entryDy=0;entryPerimeter=0;exitX=1;exitY=0.5;exitDx=0;exitDy=0;" edge="1" parent="1" source="FAsmfHj1ec_tE7GGiXv_-75" target="FAsmfHj1ec_tE7GGiXv_-12">
          <mxGeometry width="50" height="50" relative="1" as="geometry">
            <mxPoint x="630" y="970" as="sourcePoint" />
            <mxPoint x="680" y="920" as="targetPoint" />
          </mxGeometry>
        </mxCell>
        <mxCell id="FAsmfHj1ec_tE7GGiXv_-79" value="" style="endArrow=none;html=1;rounded=0;entryX=0.5;entryY=0.5;entryDx=0;entryDy=0;entryPerimeter=0;exitX=1;exitY=0.5;exitDx=0;exitDy=0;" edge="1" parent="1" source="FAsmfHj1ec_tE7GGiXv_-76" target="FAsmfHj1ec_tE7GGiXv_-12">
          <mxGeometry width="50" height="50" relative="1" as="geometry">
            <mxPoint x="630" y="910" as="sourcePoint" />
            <mxPoint x="680" y="860" as="targetPoint" />
          </mxGeometry>
        </mxCell>
        <mxCell id="FAsmfHj1ec_tE7GGiXv_-78" value="" style="endArrow=none;html=1;rounded=0;entryX=0.5;entryY=0.5;entryDx=0;entryDy=0;entryPerimeter=0;exitX=1;exitY=0.5;exitDx=0;exitDy=0;" edge="1" parent="1" source="FAsmfHj1ec_tE7GGiXv_-74" target="FAsmfHj1ec_tE7GGiXv_-12">
          <mxGeometry width="50" height="50" relative="1" as="geometry">
            <mxPoint x="630" y="840" as="sourcePoint" />
            <mxPoint x="680" y="790" as="targetPoint" />
          </mxGeometry>
        </mxCell>
        <mxCell id="FAsmfHj1ec_tE7GGiXv_-77" value="" style="endArrow=none;html=1;rounded=0;entryX=0.5;entryY=0.5;entryDx=0;entryDy=0;entryPerimeter=0;exitX=1;exitY=0.5;exitDx=0;exitDy=0;" edge="1" parent="1" source="FAsmfHj1ec_tE7GGiXv_-73" target="FAsmfHj1ec_tE7GGiXv_-12">
          <mxGeometry width="50" height="50" relative="1" as="geometry">
            <mxPoint x="630" y="780" as="sourcePoint" />
            <mxPoint x="680" y="730" as="targetPoint" />
          </mxGeometry>
        </mxCell>
        <mxCell id="FAsmfHj1ec_tE7GGiXv_-66" value="" style="endArrow=none;html=1;rounded=0;entryX=0.5;entryY=0.5;entryDx=0;entryDy=0;entryPerimeter=0;exitX=1;exitY=0.5;exitDx=0;exitDy=0;" edge="1" parent="1" source="FAsmfHj1ec_tE7GGiXv_-63" target="FAsmfHj1ec_tE7GGiXv_-13">
          <mxGeometry width="50" height="50" relative="1" as="geometry">
            <mxPoint x="630" y="710" as="sourcePoint" />
            <mxPoint x="680" y="660" as="targetPoint" />
          </mxGeometry>
        </mxCell>
        <mxCell id="FAsmfHj1ec_tE7GGiXv_-62" value="" style="endArrow=none;html=1;rounded=0;entryX=0.5;entryY=0.5;entryDx=0;entryDy=0;entryPerimeter=0;exitX=1;exitY=0.5;exitDx=0;exitDy=0;" edge="1" parent="1" source="FAsmfHj1ec_tE7GGiXv_-60" target="FAsmfHj1ec_tE7GGiXv_-8">
          <mxGeometry width="50" height="50" relative="1" as="geometry">
            <mxPoint x="630" y="440" as="sourcePoint" />
            <mxPoint x="680" y="390" as="targetPoint" />
          </mxGeometry>
        </mxCell>
        <mxCell id="FAsmfHj1ec_tE7GGiXv_-61" value="" style="endArrow=none;html=1;rounded=0;entryX=0.5;entryY=0.5;entryDx=0;entryDy=0;entryPerimeter=0;exitX=1;exitY=0.5;exitDx=0;exitDy=0;" edge="1" parent="1" source="FAsmfHj1ec_tE7GGiXv_-59" target="FAsmfHj1ec_tE7GGiXv_-8">
          <mxGeometry width="50" height="50" relative="1" as="geometry">
            <mxPoint x="630" y="370" as="sourcePoint" />
            <mxPoint x="680" y="320" as="targetPoint" />
          </mxGeometry>
        </mxCell>
        <mxCell id="FAsmfHj1ec_tE7GGiXv_-43" value="" style="endArrow=none;html=1;rounded=0;entryX=0.5;entryY=0.5;entryDx=0;entryDy=0;entryPerimeter=0;exitX=1;exitY=0.5;exitDx=0;exitDy=0;" edge="1" parent="1" source="FAsmfHj1ec_tE7GGiXv_-42" target="FAsmfHj1ec_tE7GGiXv_-8">
          <mxGeometry width="50" height="50" relative="1" as="geometry">
            <mxPoint x="630" y="310" as="sourcePoint" />
            <mxPoint x="680" y="260" as="targetPoint" />
          </mxGeometry>
        </mxCell>
        <mxCell id="FAsmfHj1ec_tE7GGiXv_-87" value="" style="endArrow=none;html=1;rounded=0;exitX=0.5;exitY=0.5;exitDx=0;exitDy=0;exitPerimeter=0;entryX=0;entryY=0.5;entryDx=0;entryDy=0;" edge="1" parent="1" source="FAsmfHj1ec_tE7GGiXv_-11" target="FAsmfHj1ec_tE7GGiXv_-86">
          <mxGeometry width="50" height="50" relative="1" as="geometry">
            <mxPoint x="-215" y="860" as="sourcePoint" />
            <mxPoint x="100" y="1025" as="targetPoint" />
          </mxGeometry>
        </mxCell>
      </root>
    </mxGraphModel>
  </diagram>
</mxfile>
